# xmcd CD database file
#
# Track frame offsets:
#	187
#	23232
#	38377
#	61390
#
# Disc length: 1019 seconds
#
# Revision: 0
# Processed by: cddbd v1.5PL3 Copyright (c) Steve Scherf et al.
# Submitted via: CDex 1.51
#
DISCID=2603f904
DTITLE=Smap - オリジナルスマイル
DYEAR=1994
DGENRE=JPop
TTITLE0=オリジナルスマイル
TTITLE1=Major
TTITLE2=オリジナルスマイル(Karaoke)
TTITLE3=Major(Karaoke)
EXTD=YEAR: 1994
EXTT0=
EXTT1=
EXTT2=
EXTT3=
PLAYORDER=
